<svg width="22" height="22" viewBox="0 0 22 22" fill="none" xmlns="http://www.w3.org/2000/svg">
<path d="M9.16406 12.8335C9.50498 12.493 9.77543 12.0886 9.95995 11.6435C10.1445 11.1983 10.2394 10.7212 10.2394 10.2393C10.2394 9.75749 10.1445 9.28036 9.95995 8.83523C9.77543 8.3901 9.50498 7.98571 9.16406 7.64518L10.9974 5.81184C11.6854 5.12383 12.6186 4.7373 13.5916 4.7373C14.5646 4.7373 15.4977 5.12383 16.1857 5.81184C16.8737 6.49986 17.2603 7.43301 17.2603 8.40601C17.2603 9.37901 16.8737 10.3122 16.1857 11.0002L14.3524 12.8335" stroke="#8B3AE5" stroke-width="1.83333" stroke-linecap="round" stroke-linejoin="round"/>
<path d="M12.8306 9.1665C12.4897 9.50704 12.2192 9.91143 12.0347 10.3566C11.8502 10.8017 11.7552 11.2788 11.7552 11.7607C11.7552 12.2425 11.8502 12.7197 12.0347 13.1648C12.2192 13.6099 12.4897 14.0143 12.8306 14.3548L10.9972 16.1882C10.3092 16.8762 9.37608 17.2627 8.40308 17.2627C7.43008 17.2627 6.49693 16.8762 5.80891 16.1882C5.1209 15.5002 4.73438 14.567 4.73438 13.594C4.73438 12.621 5.1209 11.6879 5.80891 10.9998L7.64225 9.1665" stroke="#8B3AE5" stroke-width="1.83333" stroke-linecap="round" stroke-linejoin="round"/>
</svg>
