<svg width="22" height="22" viewBox="0 0 22 22" fill="none" xmlns="http://www.w3.org/2000/svg">
<path d="M8.25 19.7085C9.00939 19.7085 9.625 19.0929 9.625 18.3335C9.625 17.5741 9.00939 16.9585 8.25 16.9585C7.49061 16.9585 6.875 17.5741 6.875 18.3335C6.875 19.0929 7.49061 19.7085 8.25 19.7085Z" stroke="#8B3AE5" stroke-width="1.83333" stroke-linecap="round" stroke-linejoin="round"/>
<path d="M16.5 19.7085C17.2594 19.7085 17.875 19.0929 17.875 18.3335C17.875 17.5741 17.2594 16.9585 16.5 16.9585C15.7406 16.9585 15.125 17.5741 15.125 18.3335C15.125 19.0929 15.7406 19.7085 16.5 19.7085Z" stroke="#8B3AE5" stroke-width="1.83333" stroke-linecap="round" stroke-linejoin="round"/>
<path d="M2.75 3.6665H4.58333L7.33333 14.6665H17.4167L19.25 7.33317H5.5" stroke="#8B3AE5" stroke-width="1.83333" stroke-linecap="round" stroke-linejoin="round"/>
</svg>
