<svg width="22" height="22" viewBox="0 0 22 22" fill="none" xmlns="http://www.w3.org/2000/svg">
<path d="M9.16406 11.9168C10.0208 12.7566 11.1727 13.227 12.3724 13.227C13.5721 13.227 14.724 12.7566 15.5807 11.9168L18.3307 9.16684C18.9927 8.28421 19.3141 7.19243 19.2359 6.09193C19.1577 4.99143 18.6851 3.95606 17.905 3.17593C17.1248 2.39579 16.0895 1.92324 14.989 1.84503C13.8885 1.76682 12.7967 2.0882 11.9141 2.75017L10.9974 3.66684" stroke="#8B3AE5" stroke-width="1.83333" stroke-linecap="round" stroke-linejoin="round"/>
<path d="M12.8333 10.0831C11.9766 9.24334 10.8247 8.77295 9.62501 8.77295C8.42531 8.77295 7.27343 9.24334 6.41667 10.0831L3.66667 12.8331C3.00471 13.7158 2.68333 14.8075 2.76154 15.908C2.83975 17.0085 3.3123 18.0439 4.09243 18.824C4.87257 19.6042 5.90793 20.0767 7.00843 20.1549C8.10893 20.2331 9.20072 19.9118 10.0833 19.2498L11 18.3331" stroke="#8B3AE5" stroke-width="1.83333" stroke-linecap="round" stroke-linejoin="round"/>
</svg>
