<svg width="152" height="141" viewBox="0 0 152 141" fill="none" xmlns="http://www.w3.org/2000/svg">
<path d="M149.632 105.663C144.081 94.3176 139.485 85.768 130.326 69.6846C124.489 59.5309 119.231 50.1121 118.601 48.7237C117.972 47.3353 117.145 46.1974 116.831 46.168C116.457 46.1013 114.094 49.3616 111.598 53.369C109.053 57.3877 106.698 60.9019 106.355 61.1862C106.023 61.5191 103.227 62.4756 100.214 63.3802C93.1811 65.4747 84.8011 68.5982 83.7455 69.5596C82.4326 70.7343 83.648 71.7819 90.9554 75.7113C93.4224 77.082 95.5271 78.4346 95.606 78.7744C95.6849 79.1141 94.4113 81.5586 92.7606 84.1418C87.2609 92.8371 86.6761 93.8426 87.0766 94.4657C87.3012 94.7717 90.7649 95.8085 94.7252 96.7812C117.587 102.264 131.497 105.989 140.618 109.139C144.5 110.436 148.435 111.517 149.391 111.449C150.892 111.305 151.112 111.151 151.129 110.124C151.177 109.448 151.127 108.794 151.093 108.649C151.011 108.514 150.344 107.186 149.632 105.663ZM145.219 103.619C142.874 101.453 137.82 95.7723 127.187 83.2541C120.834 75.7267 114.204 68.1101 112.458 66.3162C110.759 64.5111 109.289 62.8065 109.221 62.5153C108.917 61.2048 116.059 49.6724 116.848 50.2053C117.686 50.7269 145.264 101.614 145.857 103.727C146.019 104.201 145.802 104.149 145.219 103.619ZM139.46 106.134C137.715 105.67 131.426 103.703 125.522 101.852C111.238 97.3953 103.503 95.151 96.6774 93.5141C93.5951 92.7978 90.9982 91.9688 90.9418 91.7261C90.8741 91.4349 92.6028 88.5267 94.7378 85.1659C96.8841 81.8537 99.0746 78.0708 99.6403 76.7628L100.612 74.3375L102.997 76.2387C104.31 77.2638 111.447 82.6649 118.836 88.2636C130.58 97.1985 142.463 106.51 142.553 106.899C142.576 106.996 141.167 106.658 139.46 106.134ZM138.647 99.7748C138.55 99.7973 133.835 96.2376 128.215 91.865C117.776 83.7013 113.932 80.8088 104.772 74.1894C99.6834 70.563 99.4554 70.4625 95.9295 70.2586C90.6891 69.9414 90.5391 69.5159 95.2956 68.4108C97.5282 67.8921 101.426 66.8331 103.916 66.1011L108.448 64.6901L122.025 80.4121C129.507 89.0583 136.338 96.8837 137.217 97.8049C138.867 99.6213 138.938 99.7071 138.647 99.7748ZM97.5989 75.2421C97.1596 76.2138 96.9542 76.2103 93.9116 74.5641C92.1138 73.6517 90.6298 72.7688 90.6073 72.6717C90.5396 72.3805 93.0046 72.4216 95.6457 72.78C98.0215 73.0977 98.3769 73.5266 97.5989 75.2421Z" fill="#8B3AE5"/>
<path d="M89.8667 57.3971C89.0406 56.924 88.3081 56.6338 88.2449 56.8019C87.9468 57.2804 90.4575 60.3803 90.9463 60.0621C91.8866 59.4856 91.3992 58.2688 89.8667 57.3971Z" fill="#8B3AE5"/>
<path d="M80.446 49.1523C78.2894 48.0164 76.6269 47.6865 76.796 48.4145C76.9539 49.094 80.4353 51.9683 81.6124 52.411C83.3425 53.0322 83.4769 52.9498 83.1611 51.5908C82.9807 50.8142 82.0757 50.0014 80.446 49.1523Z" fill="#8B3AE5"/>
<path d="M69.3468 43.0774C68.1947 41.8615 63.9579 40.7997 62.3042 41.3885C60.6393 41.9288 59.9991 43.3564 61.5522 42.9956C62.0861 42.8715 63.6402 43.1755 65.034 43.6701C69.1557 45.1169 70.9368 44.8565 69.3468 43.0774Z" fill="#8B3AE5"/>
<path d="M61.2391 51.3034C60.4562 49.6949 59.7002 48.6428 59.5026 48.8933C59.3649 49.1811 59.5889 51.6868 60.0263 54.4499C60.7838 59.0314 60.9451 59.5055 61.752 59.6761C64.0195 59.9678 63.8238 56.4835 61.2391 51.3034Z" fill="#8B3AE5"/>
<path d="M62.0113 63.8686C61.0406 64.0941 59.0075 65.6919 58.6314 66.4954C57.5519 68.8948 60.4131 69.0997 61.8549 66.7185C62.7977 65.2717 62.8364 63.6769 62.0113 63.8686Z" fill="#8B3AE5"/>
<path d="M56.665 42.6008C56.0174 41.5747 50.1671 37.9718 49.4876 38.1297C48.5169 38.3552 48.8802 39.0382 50.6113 40.3241C51.4825 40.9913 52.1855 41.5953 52.2193 41.7409C52.2532 41.8865 51.1932 42.3886 49.9279 42.8872C48.614 43.3971 47.1962 44.3403 46.678 44.9723C45.8244 46.1426 45.8244 46.1426 50.0279 44.859C53.6004 43.7221 54.351 43.65 55.3453 44.1863C56.9376 45.0952 57.7019 44.2015 56.665 42.6008Z" fill="#8B3AE5"/>
<path d="M55.207 69.8407C53.5063 68.9057 50.1147 68.6195 49.8358 69.4005C49.5681 70.23 50.7202 71.4458 51.8184 71.5488C54.1491 71.6723 56.5239 71.3252 56.4337 70.9369C56.366 70.6457 55.7939 70.1647 55.207 69.8407Z" fill="#8B3AE5"/>
<path d="M43.8245 35.1022C41.862 33.9212 37.08 32.9348 34.2232 33.1893C32.2254 33.3977 32.1769 33.409 33.2795 33.9713C33.9149 34.2841 35.8019 34.9199 37.4384 35.3582C39.0861 35.845 41.384 36.4877 42.49 36.8446C44.0407 37.354 44.6457 37.3157 44.981 36.7774C45.3164 36.2391 45.0207 35.8474 43.8245 35.1022Z" fill="#8B3AE5"/>
<path d="M43.8498 49.7244C42.2227 48.0051 39.5351 54.052 41.0731 56.0478C41.7354 56.917 41.8099 56.7974 42.587 54.4172C43.0218 52.9861 43.5616 51.7864 43.7557 51.7413C44.3867 51.5947 44.4445 50.3024 43.8498 49.7244Z" fill="#8B3AE5"/>
<path d="M44.0782 63.3198C43.0437 60.8489 40.2987 60.924 40.8738 63.3993C41.3926 65.6319 44.1086 68.7353 44.7533 67.767C45.0029 67.2998 44.6366 64.6225 44.0782 63.3198Z" fill="#8B3AE5"/>
<path d="M25.6996 31.1197C23.5914 29.9725 15.8802 30.6898 16.1959 32.0488C16.2974 32.4856 23.769 33.8191 25.8491 33.745C27.0704 33.7171 27.2792 33.5151 27.0988 32.7385C26.9748 32.2046 26.3462 31.481 25.6996 31.1197Z" fill="#8B3AE5"/>
<path d="M7.74553 28.4434C7.42392 28.1601 6.06051 28.0164 4.72749 28.2238C2.83803 28.4582 2.14383 28.773 1.35354 29.7751L0.402934 30.9679L1.60604 31.3022C3.62738 31.8557 7.86911 31.1771 8.17404 30.2878C8.51623 29.3387 8.47112 29.1445 7.74553 28.4434Z" fill="#8B3AE5"/>
</svg>
