<svg width="22" height="22" viewBox="0 0 22 22" fill="none" xmlns="http://www.w3.org/2000/svg">
<path d="M19.25 11C19.25 15.5833 15.5833 19.25 11 19.25C9.625 19.25 8.25 18.8833 7.05833 18.3333L2.75 19.25L3.66667 14.9417C3.11667 13.75 2.75 12.375 2.75 11C2.75 9.91659 2.96339 8.8438 3.37799 7.84286C3.7926 6.84193 4.40029 5.93245 5.16637 5.16637C5.93245 4.40029 6.84193 3.7926 7.84286 3.37799C8.8438 2.96339 9.91659 2.75 11 2.75C12.0834 2.75 13.1562 2.96339 14.1571 3.37799C15.1581 3.7926 16.0675 4.40029 16.8336 5.16637C17.5997 5.93245 18.2074 6.84193 18.622 7.84286C19.0366 8.8438 19.25 9.91659 19.25 11Z" stroke="#8B3AE5" stroke-width="1.83333" stroke-linecap="round" stroke-linejoin="round"/>
</svg>
