<svg width="512" height="106" viewBox="0 0 512 106" fill="none" xmlns="http://www.w3.org/2000/svg">
<path d="M11.8665 21.9009L0.00343958 0.624285H6.87153L13.7876 13.3999C14.316 14.3605 14.6522 15.1289 15.0364 15.9934C15.4686 15.1289 15.6608 14.5526 16.2851 13.3999L23.1532 0.624285H29.8292L18.0142 21.9009V35.7332H11.8665V21.9009ZM25.9922 23.8221C25.9922 16.4257 31.3233 11.3347 38.6717 11.3347C46.0201 11.3347 51.3512 16.4257 51.3512 23.8221C51.3512 31.2185 46.0201 36.3095 38.6717 36.3095C31.3233 36.3095 25.9922 31.2185 25.9922 23.8221ZM31.8516 23.8221C31.8516 28.1447 34.6373 31.0744 38.6717 31.0744C42.7061 31.0744 45.4918 28.1447 45.4918 23.8221C45.4918 19.4995 42.7061 16.5698 38.6717 16.5698C34.6373 16.5698 31.8516 19.4995 31.8516 23.8221ZM70.5619 12.0071H76.4214V35.7332H70.9942L70.5619 32.5633C69.1211 34.8206 66.0472 36.3576 62.8774 36.3576C57.4021 36.3576 54.1842 32.6593 54.1842 26.8479V12.0071H60.0437V24.7827C60.0437 29.2973 61.8207 31.1224 65.0867 31.1224C68.7849 31.1224 70.5619 28.9611 70.5619 24.4465V12.0071ZM96.4017 11.911V17.3382H94.2404C90.0139 17.3382 87.3723 19.5956 87.3723 24.2063V35.7332H81.5128V12.0551H87.0361L87.3723 15.5131C88.3809 13.1597 90.6383 11.5748 93.8081 11.5748C94.6246 11.5748 95.4411 11.6709 96.4017 11.911ZM127.626 5.81137C120.661 5.81137 116.675 10.8544 116.675 18.4429C116.675 26.2715 121.19 30.5461 127.674 30.5461C133.773 30.5461 137.471 27.1841 137.471 21.5647V21.4207H126.857V15.9934H143.187V35.7332H138L137.615 31.6988C135.694 34.3884 131.708 36.2615 126.953 36.2615C117.107 36.2615 110.239 29.1052 110.239 18.2988C110.239 7.63646 117.203 0.0479411 127.77 0.0479411C135.79 0.0479411 141.986 4.70671 142.995 11.863H136.511C135.406 7.73252 131.852 5.81137 127.626 5.81137ZM162.889 11.911V17.3382H160.728C156.502 17.3382 153.86 19.5956 153.86 24.2063V35.7332H148.001V12.0551H153.524L153.86 15.5131C154.869 13.1597 157.126 11.5748 160.296 11.5748C161.112 11.5748 161.929 11.6709 162.889 11.911ZM163.705 23.8221C163.705 16.4257 169.036 11.3347 176.384 11.3347C183.733 11.3347 189.064 16.4257 189.064 23.8221C189.064 31.2185 183.733 36.3095 176.384 36.3095C169.036 36.3095 163.705 31.2185 163.705 23.8221ZM169.564 23.8221C169.564 28.1447 172.35 31.0744 176.384 31.0744C180.419 31.0744 183.204 28.1447 183.204 23.8221C183.204 19.4995 180.419 16.5698 176.384 16.5698C172.35 16.5698 169.564 19.4995 169.564 23.8221ZM196.81 35.7332L189.126 12.0071H195.225L198.347 22.1891C198.876 24.0622 199.356 26.1275 199.788 28.3368C200.22 26.0314 200.653 24.5425 201.421 22.1891L204.687 12.0071H210.643L213.812 22.1891C214.101 23.1497 215.061 26.7038 215.349 28.2887C215.734 26.5117 216.502 23.678 216.934 22.1891L220.104 12.0071H226.3L218.087 35.7332H212.612L209.346 25.4551C208.385 22.3332 207.857 20.0759 207.665 18.8751C207.425 19.9798 206.992 21.6608 205.792 25.5511L202.526 35.7332H196.81ZM236.956 35.7332H231.097V16.906H226.534V12.0071H231.097V4.61066H236.956V12.0071H241.567V16.906H236.956V35.7332ZM250.109 35.7332H244.249V-8.6836e-05H250.157V15.0809C251.645 12.7755 254.431 11.2866 257.841 11.2866C263.701 11.2866 266.774 14.9848 266.774 21.1325V35.7332H260.915V22.5253C260.915 18.5389 258.946 16.6178 255.968 16.6178C252.27 16.6178 250.109 19.2113 250.109 22.7655V35.7332ZM298.3 23.63H290.568V35.7332H284.42V0.624285H298.3C305.361 0.624285 309.923 5.23503 309.923 12.1031C309.923 18.8751 305.313 23.63 298.3 23.63ZM297.1 6.09954H290.568V18.1547H297.004C301.23 18.1547 303.487 15.8974 303.487 12.0551C303.487 8.2128 301.182 6.09954 297.1 6.09954ZM319.392 36.3576C314.349 36.3576 311.275 33.4278 311.275 28.9611C311.275 24.5905 314.445 21.8529 320.064 21.4207L327.172 20.8923V20.364C327.172 17.1461 325.251 15.8493 322.273 15.8493C318.815 15.8493 316.894 17.2902 316.894 19.7877H311.899C311.899 14.6486 316.126 11.2866 322.562 11.2866C328.949 11.2866 332.888 14.7447 332.888 21.3246V35.7332H327.749L327.316 32.2271C326.308 34.6765 323.09 36.3576 319.392 36.3576ZM321.313 31.9389C324.915 31.9389 327.22 29.7776 327.22 26.1275V24.8787L322.273 25.2629C318.623 25.5991 317.23 26.7999 317.23 28.721C317.23 30.8823 318.671 31.9389 321.313 31.9389ZM352.572 11.911V17.3382H350.411C346.184 17.3382 343.543 19.5956 343.543 24.2063V35.7332H337.683V12.0551H343.207L343.543 15.5131C344.551 13.1597 346.809 11.5748 349.979 11.5748C350.795 11.5748 351.612 11.6709 352.572 11.911ZM364.585 35.7332H358.725V16.906H354.162V12.0071H358.725V4.61066H364.585V12.0071H369.195V16.906H364.585V35.7332ZM377.737 35.7332H371.878V12.0071H377.305L377.785 15.0809C379.274 12.6795 382.156 11.2866 385.374 11.2866C391.329 11.2866 394.403 14.9848 394.403 21.1325V35.7332H388.543V22.5253C388.543 18.5389 386.574 16.6178 383.548 16.6178C379.946 16.6178 377.737 19.1153 377.737 22.9576V35.7332ZM409.814 36.3576C402.753 36.3576 397.807 31.2185 397.807 23.8701C397.807 16.4257 402.657 11.2866 409.622 11.2866C416.73 11.2866 421.244 16.0415 421.244 23.4379V25.2149L403.378 25.2629C403.81 29.4414 406.019 31.5547 409.91 31.5547C413.128 31.5547 415.241 30.3059 415.913 28.0486H421.341C420.332 33.2357 416.009 36.3576 409.814 36.3576ZM409.67 16.0895C406.212 16.0895 404.098 17.9626 403.522 21.5167H415.433C415.433 18.2508 413.176 16.0895 409.67 16.0895ZM439.862 11.911V17.3382H437.701C433.475 17.3382 430.833 19.5956 430.833 24.2063V35.7332H424.973V12.0551H430.497L430.833 15.5131C431.842 13.1597 434.099 11.5748 437.269 11.5748C438.085 11.5748 438.902 11.6709 439.862 11.911ZM452.499 12.0071H455.909V9.12534C455.909 2.68951 459.319 -8.6836e-05 464.458 -8.6836e-05C465.371 -8.6836e-05 466.475 0.0479411 467.484 0.240056V5.23503H465.419C462.441 5.23503 461.721 6.77194 461.721 9.12534V12.0071H467.388V16.906H461.721V35.7332H455.909V16.906H452.499V12.0071ZM468.071 23.8221C468.071 16.4257 473.402 11.3347 480.75 11.3347C488.099 11.3347 493.43 16.4257 493.43 23.8221C493.43 31.2185 488.099 36.3095 480.75 36.3095C473.402 36.3095 468.071 31.2185 468.071 23.8221ZM473.93 23.8221C473.93 28.1447 476.716 31.0744 480.75 31.0744C484.785 31.0744 487.57 28.1447 487.57 23.8221C487.57 19.4995 484.785 16.5698 480.75 16.5698C476.716 16.5698 473.93 19.4995 473.93 23.8221ZM512.003 11.911V17.3382H509.841C505.615 17.3382 502.973 19.5956 502.973 24.2063V35.7332H497.114V12.0551H502.637L502.973 15.5131C503.982 13.1597 506.239 11.5748 509.409 11.5748C510.226 11.5748 511.042 11.6709 512.003 11.911Z" fill="#0F0F0F"/>
<path d="M0.33964 64.3262V58.6588H27.0435V64.3262H16.7654V93.7677H10.6178V64.3262H0.33964ZM32.9443 94.3921C27.9013 94.3921 24.8275 91.4623 24.8275 86.9957C24.8275 82.6251 27.9973 79.8875 33.6167 79.4552L40.7249 78.9269V78.3986C40.7249 75.1807 38.8038 73.8839 35.826 73.8839C32.368 73.8839 30.4468 75.3247 30.4468 77.8222H25.4518C25.4518 72.6832 29.6784 69.3212 36.1142 69.3212C42.502 69.3212 46.4403 72.7792 46.4403 79.3591V93.7677H41.3013L40.869 90.2616C39.8604 92.7111 36.6425 94.3921 32.9443 94.3921ZM34.8654 89.9735C38.4676 89.9735 40.773 87.8122 40.773 84.162V82.9133L35.826 83.2975C32.1758 83.6337 30.783 84.8344 30.783 86.7555C30.783 88.9168 32.2239 89.9735 34.8654 89.9735ZM57.1436 93.7677H51.3321V58.0344H57.1436V93.7677ZM72.9438 94.3921C65.8836 94.3921 60.9367 89.253 60.9367 81.9047C60.9367 74.4602 65.7876 69.3212 72.7517 69.3212C79.86 69.3212 84.3746 74.076 84.3746 81.4724V83.2495L66.508 83.2975C66.9403 87.476 69.1496 89.5892 73.0399 89.5892C76.2578 89.5892 78.3711 88.3405 79.0435 86.0831H84.4707C83.4621 91.2702 79.1395 94.3921 72.9438 94.3921ZM72.7998 74.124C69.3417 74.124 67.2284 75.9971 66.6521 79.5513H78.5632C78.5632 76.2853 76.3058 74.124 72.7998 74.124ZM93.9631 93.7677H88.1036V70.0416H93.5309L94.0111 73.1154C95.5 70.714 98.3817 69.3212 101.6 69.3212C107.555 69.3212 110.629 73.0194 110.629 79.167V93.7677H104.77V80.5599C104.77 76.5735 102.8 74.6523 99.7746 74.6523C96.1724 74.6523 93.9631 77.1498 93.9631 80.9921V93.7677ZM123.494 93.7677H117.635V74.9405H113.072V70.0416H117.635V62.6452H123.494V70.0416H128.105V74.9405H123.494V93.7677ZM166.197 93.7677L163.843 91.1261C161.058 93.2394 157.503 94.3921 153.277 94.3921C145.64 94.3921 140.501 90.3577 140.501 84.4502C140.501 80.1756 143.287 76.6695 148.666 74.076C145.929 70.9061 144.872 68.7448 144.872 66.1032C144.872 61.4445 148.666 58.0825 153.853 58.0825C158.992 58.0825 162.546 61.2524 162.546 65.8151C162.546 69.3212 160.673 72.1068 156.303 75.0366L163.363 82.9613C163.987 81.2803 164.323 79.2631 164.323 76.9577H170.039C170.039 81.0401 169.078 84.5462 167.301 87.3319L173.017 93.7677H166.197ZM150.443 66.0552C150.443 67.7843 151.212 69.2251 153.469 71.8187C155.918 70.3778 157.119 68.4086 157.119 66.0072C157.119 63.942 155.87 62.7412 153.853 62.7412C151.74 62.7412 150.443 63.99 150.443 66.0552ZM146.697 83.8738C146.697 87.2839 149.435 89.3491 153.949 89.3491C156.591 89.3491 158.752 88.6287 160.433 87.2839L151.5 77.2459C148.186 79.119 146.697 81.1362 146.697 83.8738ZM192.604 93.7677H186.648V58.6588H192.604L203.938 86.6115L215.273 58.6588H221.325V93.7677H215.369V82.9613C215.369 75.9011 215.369 73.8359 215.705 71.3384L206.772 93.7677H201.105L192.219 71.3864C192.556 73.4997 192.604 76.8136 192.604 81.1842V93.7677ZM234.33 94.3921C229.287 94.3921 226.214 91.4623 226.214 86.9957C226.214 82.6251 229.383 79.8875 235.003 79.4552L242.111 78.9269V78.3986C242.111 75.1807 240.19 73.8839 237.212 73.8839C233.754 73.8839 231.833 75.3247 231.833 77.8222H226.838C226.838 72.6832 231.064 69.3212 237.5 69.3212C243.888 69.3212 247.826 72.7792 247.826 79.3591V93.7677H242.687L242.255 90.2616C241.246 92.7111 238.029 94.3921 234.33 94.3921ZM236.252 89.9735C239.854 89.9735 242.159 87.8122 242.159 84.162V82.9133L237.212 83.2975C233.562 83.6337 232.169 84.8344 232.169 86.7555C232.169 88.9168 233.61 89.9735 236.252 89.9735ZM267.511 69.9455V75.3728H265.35C261.123 75.3728 258.482 77.6301 258.482 82.2409V93.7677H252.622V70.0896H258.145L258.482 73.5477C259.49 71.1943 261.748 69.6093 264.917 69.6093C265.734 69.6093 266.55 69.7054 267.511 69.9455ZM276.424 93.7677H270.613V58.0344H276.424V79.9835L285.646 70.0416H292.994L283.965 79.4552L292.802 93.7677H286.078L279.882 83.7778L276.424 87.3799V93.7677ZM304.935 94.3921C297.875 94.3921 292.928 89.253 292.928 81.9047C292.928 74.4602 297.779 69.3212 304.743 69.3212C311.851 69.3212 316.366 74.076 316.366 81.4724V83.2495L298.499 83.2975C298.931 87.476 301.141 89.5892 305.031 89.5892C308.249 89.5892 310.362 88.3405 311.035 86.0831H316.462C315.453 91.2702 311.131 94.3921 304.935 94.3921ZM304.791 74.124C301.333 74.124 299.22 75.9971 298.643 79.5513H310.554C310.554 76.2853 308.297 74.124 304.791 74.124ZM327.929 93.7677H322.07V74.9405H317.507V70.0416H322.07V62.6452H327.929V70.0416H332.54V74.9405H327.929V93.7677ZM338.152 65.2868C336.134 65.2868 334.55 63.7018 334.55 61.7326C334.55 59.7635 336.134 58.2266 338.152 58.2266C340.073 58.2266 341.658 59.7635 341.658 61.7326C341.658 63.7018 340.073 65.2868 338.152 65.2868ZM335.222 93.7677V70.0416H341.081V93.7677H335.222ZM352.034 93.7677H346.175V70.0416H351.602L352.082 73.1154C353.571 70.714 356.453 69.3212 359.671 69.3212C365.626 69.3212 368.7 73.0194 368.7 79.167V93.7677H362.841V80.5599C362.841 76.5735 360.871 74.6523 357.846 74.6523C354.244 74.6523 352.034 77.1498 352.034 80.9921V93.7677ZM372.152 81.3763C372.152 74.4602 376.666 69.2731 383.438 69.2731C386.993 69.2731 389.778 70.762 391.171 73.3075L391.507 70.0416H396.935V92.567C396.935 100.492 392.18 105.439 384.495 105.439C377.675 105.439 373.016 101.548 372.296 95.2086H378.155C378.54 98.2824 380.893 100.107 384.495 100.107C388.53 100.107 391.123 97.562 391.123 93.6236V89.6853C389.634 91.8946 386.704 93.2874 383.294 93.2874C376.57 93.2874 372.152 88.2444 372.152 81.3763ZM378.059 81.2323C378.059 85.2186 380.605 88.1964 384.447 88.1964C388.481 88.1964 390.979 85.3627 390.979 81.2323C390.979 77.1979 388.53 74.4122 384.447 74.4122C380.557 74.4122 378.059 77.3419 378.059 81.2323Z" fill="url(#paint0_linear_62_1385)"/>
<defs>
<linearGradient id="paint0_linear_62_1385" x1="27.7338" y1="-45.0953" x2="389.152" y2="256.553" gradientUnits="userSpaceOnUse">
<stop stop-color="#8B3AE5"/>
<stop offset="0.6" stop-color="#591F97"/>
<stop offset="1" stop-color="#0F0A1F"/>
</linearGradient>
</defs>
</svg>
