<svg width="22" height="22" viewBox="0 0 22 22" fill="none" xmlns="http://www.w3.org/2000/svg">
<path d="M2.75 5.5H19.25L17.4167 16.5H4.58333L2.75 5.5Z" stroke="white" stroke-width="1.83338" stroke-linecap="round" stroke-linejoin="round"/>
<path d="M8.25 19.709C9.00939 19.709 9.625 19.0934 9.625 18.334C9.625 17.5746 9.00939 16.959 8.25 16.959C7.49061 16.959 6.875 17.5746 6.875 18.334C6.875 19.0934 7.49061 19.709 8.25 19.709Z" stroke="white" stroke-width="1.83338" stroke-linecap="round" stroke-linejoin="round"/>
<path d="M15.5859 19.709C16.3453 19.709 16.9609 19.0934 16.9609 18.334C16.9609 17.5746 16.3453 16.959 15.5859 16.959C14.8265 16.959 14.2109 17.5746 14.2109 18.334C14.2109 19.0934 14.8265 19.709 15.5859 19.709Z" stroke="white" stroke-width="1.83338" stroke-linecap="round" stroke-linejoin="round"/>
</svg>
