<svg width="22" height="22" viewBox="0 0 22 22" fill="none" xmlns="http://www.w3.org/2000/svg">
<path d="M16.5 2.75H5.5C3.98122 2.75 2.75 3.98122 2.75 5.5V16.5C2.75 18.0188 3.98122 19.25 5.5 19.25H16.5C18.0188 19.25 19.25 18.0188 19.25 16.5V5.5C19.25 3.98122 18.0188 2.75 16.5 2.75Z" stroke="#8B3AE5" stroke-width="1.83333" stroke-linecap="round" stroke-linejoin="round"/>
<path d="M8.2474 10.0832C9.25992 10.0832 10.0807 9.26236 10.0807 8.24984C10.0807 7.23732 9.25992 6.4165 8.2474 6.4165C7.23487 6.4165 6.41406 7.23732 6.41406 8.24984C6.41406 9.26236 7.23487 10.0832 8.2474 10.0832Z" stroke="#8B3AE5" stroke-width="1.83333" stroke-linecap="round" stroke-linejoin="round"/>
<path d="M19.2526 13.7498L14.6693 9.1665L4.58594 19.2498" stroke="#8B3AE5" stroke-width="1.83333" stroke-linecap="round" stroke-linejoin="round"/>
</svg>
