<svg width="22" height="22" viewBox="0 0 22 22" fill="none" xmlns="http://www.w3.org/2000/svg">
<path d="M10.9974 1.8335C9.05247 1.8335 7.18721 2.60611 5.81195 3.98138C4.43668 5.35665 3.66406 7.22191 3.66406 9.16683C3.66406 14.2085 10.9974 20.1668 10.9974 20.1668C10.9974 20.1668 18.3307 14.2085 18.3307 9.16683C18.3307 7.22191 17.5581 5.35665 16.1828 3.98138C14.8076 2.60611 12.9423 1.8335 10.9974 1.8335Z" stroke="#8B3AE5" stroke-width="1.83333" stroke-linecap="round" stroke-linejoin="round"/>
<path d="M11 11.9165C12.5188 11.9165 13.75 10.6853 13.75 9.1665C13.75 7.64772 12.5188 6.4165 11 6.4165C9.48122 6.4165 8.25 7.64772 8.25 9.1665C8.25 10.6853 9.48122 11.9165 11 11.9165Z" stroke="#8B3AE5" stroke-width="1.83333" stroke-linecap="round" stroke-linejoin="round"/>
</svg>
