<svg width="22" height="22" viewBox="0 0 22 22" fill="none" xmlns="http://www.w3.org/2000/svg">
<path d="M11 19.25C15.5563 19.25 19.25 15.5563 19.25 11C19.25 6.44365 15.5563 2.75 11 2.75C6.44365 2.75 2.75 6.44365 2.75 11C2.75 15.5563 6.44365 19.25 11 19.25Z" stroke="#8B3AE5" stroke-width="1.83333" stroke-linecap="round" stroke-linejoin="round"/>
<path d="M11.0013 15.5832C13.5326 15.5832 15.5846 13.5311 15.5846 10.9998C15.5846 8.46853 13.5326 6.4165 11.0013 6.4165C8.47 6.4165 6.41797 8.46853 6.41797 10.9998C6.41797 13.5311 8.47 15.5832 11.0013 15.5832Z" stroke="#8B3AE5" stroke-width="1.83333" stroke-linecap="round" stroke-linejoin="round"/>
<path d="M10.9987 11.9168C11.505 11.9168 11.9154 11.5064 11.9154 11.0002C11.9154 10.4939 11.505 10.0835 10.9987 10.0835C10.4924 10.0835 10.082 10.4939 10.082 11.0002C10.082 11.5064 10.4924 11.9168 10.9987 11.9168Z" stroke="#8B3AE5" stroke-width="1.83333" stroke-linecap="round" stroke-linejoin="round"/>
</svg>
