<svg width="14" height="12" viewBox="0 0 14 12" fill="none" xmlns="http://www.w3.org/2000/svg">
<path d="M0.664062 0.666992H1.9974L3.9974 8.66699H11.3307L12.6641 3.33366H2.66406M4.66406 11.3337C4.84087 11.3337 5.01044 11.2634 5.13547 11.1384C5.26049 11.0134 5.33073 10.8438 5.33073 10.667C5.33073 10.4902 5.26049 10.3206 5.13547 10.1956C5.01044 10.0706 4.84087 10.0003 4.66406 10.0003C4.48725 10.0003 4.31768 10.0706 4.19266 10.1956C4.06763 10.3206 3.9974 10.4902 3.9974 10.667C3.9974 10.8438 4.06763 11.0134 4.19266 11.1384C4.31768 11.2634 4.48725 11.3337 4.66406 11.3337ZM9.9974 11.3337C10.1742 11.3337 10.3438 11.2634 10.4688 11.1384C10.5938 11.0134 10.6641 10.8438 10.6641 10.667C10.6641 10.4902 10.5938 10.3206 10.4688 10.1956C10.3438 10.0706 10.1742 10.0003 9.9974 10.0003C9.82059 10.0003 9.65102 10.0706 9.52599 10.1956C9.40097 10.3206 9.33073 10.4902 9.33073 10.667C9.33073 10.8438 9.40097 11.0134 9.52599 11.1384C9.65102 11.2634 9.82059 11.3337 9.9974 11.3337Z" stroke="#8B3AE5" stroke-width="1.33333" stroke-linecap="round" stroke-linejoin="round"/>
</svg>
