<svg width="15" height="16" viewBox="0 0 15 16" fill="none" xmlns="http://www.w3.org/2000/svg">
<path d="M7.33073 0.666992C6.62349 0.666992 5.94521 0.947944 5.44511 1.44804C4.94501 1.94814 4.66406 2.62641 4.66406 3.33366V5.33366H2.66406C2.13363 5.33366 1.62492 5.54437 1.24985 5.91945C0.874776 6.29452 0.664063 6.80323 0.664062 7.33366V9.33366C0.664063 9.86409 0.874776 10.3728 1.24985 10.7479C1.62492 11.1229 2.13363 11.3337 2.66406 11.3337H4.66406V13.3337C4.66406 14.0409 4.94501 14.7192 5.44511 15.2193C5.94521 15.7194 6.62349 16.0003 7.33073 16.0003C8.03797 16.0003 8.71625 15.7194 9.21635 15.2193C9.71644 14.7192 9.9974 14.0409 9.9974 13.3337V11.3337H11.9974C12.5278 11.3337 13.0365 11.1229 13.4116 10.7479C13.7867 10.3728 13.9974 9.86409 13.9974 9.33366V7.33366C13.9974 6.80323 13.7867 6.29452 13.4116 5.91945C13.0365 5.54437 12.5278 5.33366 11.9974 5.33366H9.9974V3.33366C9.9974 2.62641 9.71644 1.94814 9.21635 1.44804C8.71625 0.947944 8.03797 0.666992 7.33073 0.666992Z" stroke="#8B3AE5" stroke-width="1.33333" stroke-linecap="round" stroke-linejoin="round"/>
</svg>
