<svg width="14" height="14" viewBox="0 0 14 14" fill="none" xmlns="http://www.w3.org/2000/svg">
<path d="M12.6641 6.33368C12.6664 7.21359 12.4608 8.0816 12.0641 8.86701C11.5937 9.80818 10.8706 10.5998 9.9757 11.1532C9.08083 11.7066 8.04956 11.9999 6.9974 12.0003C6.11748 12.0026 5.24947 11.7971 4.46406 11.4003L0.664062 12.667L1.93073 8.86701C1.53402 8.0816 1.32844 7.21359 1.33073 6.33368C1.33114 5.28152 1.62447 4.25025 2.17788 3.35538C2.73128 2.46051 3.5229 1.73739 4.46406 1.26701C5.24947 0.870299 6.11748 0.664717 6.9974 0.667011H7.33073C8.72029 0.743672 10.0328 1.33019 11.0168 2.31425C12.0009 3.29832 12.5874 4.61078 12.6641 6.00034V6.33368Z" stroke="#8B3AE5" stroke-width="1.33333" stroke-linecap="round" stroke-linejoin="round"/>
</svg>
