<svg width="16" height="14" viewBox="0 0 16 14" fill="none" xmlns="http://www.w3.org/2000/svg">
<path d="M11.3307 12.667V11.3337C11.3307 10.6264 11.0498 9.94814 10.5497 9.44804C10.0496 8.94794 9.37131 8.66699 8.66406 8.66699H3.33073C2.62349 8.66699 1.94521 8.94794 1.44511 9.44804C0.945014 9.94814 0.664063 10.6264 0.664062 11.3337V12.667M15.3307 12.667V11.3337C15.3303 10.7428 15.1336 10.1688 14.7716 9.70187C14.4096 9.2349 13.9028 8.90137 13.3307 8.75366M10.6641 0.753659C11.2377 0.900526 11.7461 1.23413 12.1092 1.70187C12.4722 2.16961 12.6693 2.74488 12.6693 3.33699C12.6693 3.92911 12.4722 4.50438 12.1092 4.97212C11.7461 5.43986 11.2377 5.77346 10.6641 5.92033M5.9974 6.00033C6.70464 6.00033 7.38292 5.71937 7.88301 5.21928C8.38311 4.71918 8.66406 4.0409 8.66406 3.33366C8.66406 2.62641 8.38311 1.94814 7.88301 1.44804C7.38292 0.947944 6.70464 0.666992 5.9974 0.666992C5.29015 0.666992 4.61187 0.947944 4.11178 1.44804C3.61168 1.94814 3.33073 2.62641 3.33073 3.33366C3.33073 4.0409 3.61168 4.71918 4.11178 5.21928C4.61187 5.71937 5.29015 6.00033 5.9974 6.00033Z" stroke="#8B3AE5" stroke-width="1.33333" stroke-linecap="round" stroke-linejoin="round"/>
</svg>
